<svg width="53" height="53" viewBox="0 0 53 53" fill="none" xmlns="http://www.w3.org/2000/svg">
<circle cx="26.5" cy="26.5" r="26.5" fill="#E0E0E0"/>
<path d="M36.1438 17.8562C31.0935 12.8058 22.9066 12.8058 17.8562 17.8562C12.8059 22.9065 12.8059 31.0934 17.8562 36.1438C22.9066 41.1941 31.0935 41.1941 36.1438 36.1438C41.1941 31.0934 41.1931 22.9065 36.1438 17.8562ZM34.0376 23.8024L26.1797 31.6614C25.9857 31.8553 25.7226 31.9642 25.4483 31.9642C25.174 31.9642 24.9109 31.8553 24.7169 31.6614L19.9624 26.9058C19.8664 26.8098 19.7902 26.6958 19.7382 26.5703C19.6862 26.4448 19.6595 26.3103 19.6595 26.1745C19.6595 25.9001 19.7684 25.6371 19.9624 25.4431C20.1564 25.2491 20.4195 25.1401 20.6938 25.1401C20.9681 25.1401 21.2312 25.2491 21.4252 25.4431L25.4483 29.4662L32.5748 22.3386C32.6709 22.2425 32.785 22.1664 32.9106 22.1144C33.0361 22.0625 33.1707 22.0358 33.3066 22.0358C33.4425 22.0358 33.577 22.0627 33.7025 22.1147C33.828 22.1667 33.9421 22.243 34.0381 22.3391C34.1342 22.4352 34.2103 22.5493 34.2623 22.6749C34.3142 22.8004 34.341 22.935 34.3409 23.0709C34.3409 23.2067 34.314 23.3413 34.262 23.4668C34.21 23.5923 34.1337 23.7063 34.0376 23.8024Z" fill="black"/>
</svg>
