<svg width="35" height="32" viewBox="0 0 35 32" fill="none" xmlns="http://www.w3.org/2000/svg">
<path d="M5.25 15.932H3.5V28.6776C3.5 30.4365 5.068 31.864 7 31.864H15.75V15.932H7H5.25ZM28 15.932H19.25V31.864H28C29.932 31.864 31.5 30.4365 31.5 28.6776V15.932H29.75H28ZM29.3843 7.966C29.6135 7.31119 29.75 6.52575 29.75 5.5762C29.75 2.50132 27.0025 0 23.625 0C20.7865 0 18.8912 2.36112 17.668 4.91502C16.4622 2.50132 14.4707 0 11.375 0C7.9975 0 5.25 2.50132 5.25 5.5762C5.25 6.52575 5.38825 7.31119 5.61575 7.966H0V14.3388H15.75V11.1524H17.5H19.25V11.2974V14.3388H35V7.966H29.3843ZM8.75 5.5762C8.75 4.25862 9.92775 3.1864 11.375 3.1864C12.929 3.1864 14.3745 5.61603 15.2215 7.966H10.5C9.8455 7.966 8.75 7.966 8.75 5.5762ZM23.625 3.1864C25.0723 3.1864 26.25 4.25862 26.25 5.5762C26.25 7.966 25.1545 7.966 24.5 7.966H20.1652C21.0577 5.45512 22.3545 3.1864 23.625 3.1864Z" fill="#151515"/>
</svg>
